<svg xmlns="http://www.w3.org/2000/svg" width="450" height="600" viewBox="-90 -225 180 240">
<defs>
<radialGradient id="skin" cx=".28" cy=".22" r=".82"><stop stop-color="#f7e1da"/><stop offset=".48" stop-color="#E6C3BE"/><stop offset=".82" stop-color="#d5aaa8"/><stop offset="1" stop-color="#ba8f92"/></radialGradient>
<radialGradient id="cheek"><stop stop-color="#d77e76" stop-opacity=".47"/><stop offset=".6" stop-color="#e49481" stop-opacity=".25"/><stop offset="1" stop-color="#e49481" stop-opacity="0"/></radialGradient>
<radialGradient id="muzzle" cx=".3" cy=".2" r=".9"><stop stop-color="#fff2e9"/><stop offset=".6" stop-color="#F6E3DE"/><stop offset="1" stop-color="#ebd1ca"/></radialGradient>
<linearGradient id="eye" x1="0" y1="0" x2=".3" y2="1"><stop stop-color="#49373b"/><stop offset="1" stop-color="#715046"/></linearGradient>

<linearGradient id="ear" x1="0" y1="0" x2=".7" y2="1"><stop stop-color="#f1d7ce"/><stop offset=".55" stop-color="#E6C3BE"/><stop offset="1" stop-color="#bd9498"/></linearGradient>
<radialGradient id="pink" cx=".3" cy=".25" r=".8"><stop stop-color="#f5d8d6"/><stop offset="1" stop-color="#dcaeaf"/></radialGradient>
</defs><circle cx="-36" cy="-180" r="13.6" fill="url(#ear)" stroke="#4A3A40" stroke-width="2.6"/>
<circle cx="36" cy="-180" r="13.6" fill="url(#ear)" stroke="#4A3A40" stroke-width="2.6"/>
<circle cx="-36" cy="-179" r="8" fill="url(#pink)"/>
<circle cx="36" cy="-179" r="8" fill="url(#pink)"/>
<path d="M-46-182 Q-44-190-37-191 M27-186 Q30-191 36-191" fill="none" stroke="#fff0e5" stroke-width="1.2" stroke-linecap="round" opacity=".7"/>
<path d="M-46-142 C-46-166-26-185 0-185 C26-185 46-166 46-142 C46-118 25-99 0-99 C-25-99-46-118-46-142Z" fill="url(#skin)" stroke="#4A3A40" stroke-width="2.6"/>
<path d="M46-142 C46-118 25-99 0-99 C-14-99-27-105-35-113" fill="none" stroke="#4A3A40" stroke-width="3.4" stroke-linecap="round"/>
<path d="M-41-151 C-38-167-24-178-10-180" fill="none" stroke="#fff0e5" stroke-width="1.3" stroke-linecap="round" opacity=".7"/>
<path d="M39-125 Q28-106 10-104" fill="none" stroke="#ae7f85" stroke-width="1.15" stroke-linecap="round" opacity=".5"/>
<ellipse cx="-30" cy="-126" rx="12" ry="8" fill="url(#cheek)"/>
<ellipse cx="31" cy="-126" rx="12" ry="8" fill="url(#cheek)"/>
<ellipse cx="0" cy="-126" rx="17" ry="12" fill="url(#muzzle)"/>
<path d="M-22-155 Q-17-158-12-156 M12-155 Q17-156 22-154" fill="none" stroke="#a0787b" stroke-width="1.1" stroke-linecap="round" opacity=".7"/>
<ellipse cx="-16" cy="-142" rx="6.1" ry="7.7" fill="url(#eye)"/>
<ellipse cx="16" cy="-142" rx="6.1" ry="7.7" fill="url(#eye)"/>
<ellipse cx="-17.8" cy="-145.1" rx="2.05" ry="2.45" fill="#fff9e9"/>
<ellipse cx="14.2" cy="-145.1" rx="2.05" ry="2.45" fill="#fff9e9"/>
<circle cx="-13.8" cy="-138.2" r=".85" fill="#dfb6b3" opacity=".75"/>
<circle cx="18.2" cy="-138.2" r=".85" fill="#dfb6b3" opacity=".75"/>
<ellipse cx="0" cy="-132" rx="4.3" ry="3" fill="#765655"/>
<ellipse cx="-1.1" cy="-133" rx="1.4" ry=".7" fill="#c7a09a" opacity=".8"/>
<path d="M-7-124 Q0-117 7-124" fill="none" stroke="#604339" stroke-width="1.9" stroke-linecap="round"/>
<path d="M-2-116.5 Q1-115.5 4-117" fill="none" stroke="#b78d8c" stroke-width=".7" stroke-linecap="round" opacity=".5"/>
<path d="M-43-54 C-49-60-59-56-60-48 C-63-40-55-34-48-36 C-43-37-40-40-41-44 C-36-42-34-46-37-49 Q-40-53-43-54Z" fill="url(#skin)" stroke="#4A3A40" stroke-width="2.6" stroke-linecap="round" stroke-linejoin="round"/>
<path d="M-55-50 Q-57-45-54-42" fill="none" stroke="#fff0e5" stroke-width="1.15" stroke-linecap="round" opacity=".8"/><path d="M43-54 C49-60 58-55 60-48 C62-40 55-34 48-36 C43-37 40-40 41-44 C36-42 34-46 37-49 Q40-53 43-54Z" fill="url(#skin)" stroke="#4A3A40" stroke-width="2.6" stroke-linecap="round" stroke-linejoin="round"/>
<path d="M46-53 Q51-56 55-51" fill="none" stroke="#fff0e5" stroke-width="1.1" stroke-linecap="round" opacity=".7"/>
<path d="M-60-48 C-63-40-55-34-48-36 C-43-37-40-40-41-44" fill="none" stroke="#4A3A40" stroke-width="3.4" stroke-linecap="round" stroke-linejoin="round"/>
<path d="M60-48 C62-40 55-34 48-36 C43-37 40-40 41-44" fill="none" stroke="#4A3A40" stroke-width="3.4" stroke-linecap="round" stroke-linejoin="round"/>
</svg>
