<svg xmlns="http://www.w3.org/2000/svg" width="480" height="480" viewBox="0 0 480">
<defs>
<radialGradient id="skin" cx=".28" cy=".22" r=".82"><stop stop-color="#ffe5be"/><stop offset=".48" stop-color="#f3c48f"/><stop offset=".82" stop-color="#eab07e"/><stop offset="1" stop-color="#d49770"/></radialGradient>
<radialGradient id="cheek"><stop stop-color="#d77e76" stop-opacity=".47"/><stop offset=".6" stop-color="#e49481" stop-opacity=".25"/><stop offset="1" stop-color="#e49481" stop-opacity="0"/></radialGradient>
<radialGradient id="muzzle"><stop stop-color="#fff1d7" stop-opacity=".62"/><stop offset="1" stop-color="#fff1d7" stop-opacity="0"/></radialGradient>
<linearGradient id="eye" x1="0" y1="0" x2=".3" y2="1"><stop stop-color="#49373b"/><stop offset="1" stop-color="#715046"/></linearGradient>
<linearGradient id="curl" x1="0" y1="0" x2=".7" y2="1"><stop stop-color="#b7875f"/><stop offset="1" stop-color="#81573f"/></linearGradient>
<radialGradient id="rose" cx=".25" cy=".18" r=".95"><stop stop-color="#f8dcd7"/><stop offset="1" stop-color="#ce909e"/></radialGradient><radialGradient id="sage" cx=".25" cy=".18" r=".95"><stop stop-color="#e2edce"/><stop offset="1" stop-color="#97b79d"/></radialGradient><radialGradient id="cream" cx=".25" cy=".18" r=".95"><stop stop-color="#fffdf0"/><stop offset="1" stop-color="#ddd6c8"/></radialGradient><radialGradient id="gold" cx=".25" cy=".18" r=".95"><stop stop-color="#fff0c1"/><stop offset="1" stop-color="#d1ae69"/></radialGradient><radialGradient id="sky" cx=".25" cy=".18" r=".95"><stop stop-color="#dceaf1"/><stop offset="1" stop-color="#9bb9cd"/></radialGradient><radialGradient id="toast" cx=".25" cy=".18" r=".95"><stop stop-color="#f5deb0"/><stop offset="1" stop-color="#cb9563"/></radialGradient><radialGradient id="shirt" cx=".25" cy=".18" r=".95"><stop stop-color="#fff5df"/><stop offset="1" stop-color="#daceb5"/></radialGradient><radialGradient id="ground"><stop stop-color="#6b5666" stop-opacity=".18"/><stop offset="1" stop-color="#6b5666" stop-opacity="0"/></radialGradient><radialGradient id="paperLight" cx=".25" cy=".15" r=".9"><stop stop-color="#fffdf5" stop-opacity=".32"/><stop offset="1" stop-color="#fffdf5" stop-opacity="0"/></radialGradient></defs>
<circle cx="240" cy="240" r="216" fill="#ffffff"/>
<circle cx="240" cy="240" r="201" fill="#F7D3DA"/>
<circle cx="240" cy="240" r="201" fill="url(#paperLight)"/>

<ellipse cx="240" cy="401" rx="132" ry="24" fill="url(#ground)" />
<g stroke="#4a3a40" stroke-width="4.8" stroke-linecap="round" stroke-linejoin="round">
<path d="M191 285 Q240 266 289 285 Q316 324 310 386 Q240 419 170 386 Q165 325 191 285Z" fill="url(#shirt)" />
<path d="M211 292 Q239 320 269 292" fill="none" stroke="#a89984" stroke-width="2.4"/>
<g stroke="none" transform="rotate(-6 240 222) translate(240 480) scale(1.85)"><path d="M-47-145 C-46-168-29-185-5-187 C17-190 39-175 46-153 C53-130 40-109 19-102 C4-96-14-99-28-109 C-41-118-49-130-47-145Z" fill="url(#skin)" stroke="#4A3A40" stroke-width="2.6" stroke-linejoin="round"/>
<path d="M46-153 C53-130 40-109 19-102 C4-96-14-99-28-109" fill="none" stroke="#4A3A40" stroke-width="3.4" stroke-linecap="round" stroke-linejoin="round"/>
<path d="M-43-149 C-41-168-27-180-10-182" fill="none" stroke="#fff1d8" stroke-opacity=".64" stroke-width="1.3" stroke-linecap="round"/>
<path d="M41-128 Q34-108 12-103" fill="none" stroke="#aa7357" stroke-opacity=".5" stroke-width="1.15" stroke-linecap="round"/>
<path d="M-4-187 C-12-199 1-209 12-202 C22-195 14-185 7-191 C3-195 9-199 12-195" fill="none" stroke="#745140" stroke-width="6.4" stroke-linecap="round"/>
<path d="M-4.5-189 C-10-199 1-206 11-200 C18-195 13-190 8-193" fill="none" stroke="url(#curl)" stroke-width="3.8" stroke-linecap="round"/>
<path d="M-5-196 Q-1-204 7-201" fill="none" stroke="#e7ba85" stroke-width="1.1" stroke-linecap="round"/>
<ellipse cx="-30" cy="-126" rx="12" ry="8" fill="url(#cheek)"/>
<ellipse cx="31" cy="-126" rx="12" ry="8" fill="url(#cheek)"/>
<ellipse cx="0" cy="-124" rx="18" ry="13" fill="url(#muzzle)"/>
<path d="M-22-154 Q-17-157-12-155 M12-155 Q17-157 21-153" fill="none" stroke="#9a7155" stroke-width="1.1" stroke-linecap="round" opacity=".7"/>
<ellipse cx="-16" cy="-142" rx="6.1" ry="7.7" fill="url(#eye)"/>
<ellipse cx="16" cy="-142" rx="6.1" ry="7.7" fill="url(#eye)"/>
<ellipse cx="-17.8" cy="-145.1" rx="2.05" ry="2.45" fill="#fff9e9"/>
<ellipse cx="14.2" cy="-145.1" rx="2.05" ry="2.45" fill="#fff9e9"/>
<circle cx="-13.8" cy="-138.2" r=".85" fill="#e8bd91" opacity=".75"/>
<circle cx="18.2" cy="-138.2" r=".85" fill="#e8bd91" opacity=".75"/>
<path d="M-7.5-126 Q-.5-117.5 8-126" fill="none" stroke="#604339" stroke-width="1.9" stroke-linecap="round"/>
<path d="M-2-116.5 Q1-115.5 4-117" fill="none" stroke="#bd8565" stroke-width=".7" stroke-linecap="round" opacity=".5"/>
<g fill="#b98160" opacity=".36"><circle cx="-33" cy="-125" r=".65"/><circle cx="-29" cy="-123.5" r=".7"/><circle cx="29" cy="-123.5" r=".7"/><circle cx="33" cy="-125" r=".65"/></g></g>
<g transform="translate(240 349) rotate(6)"><path d="M0 58 Q-8 23 0-4" fill="none" stroke="#748b6c" stroke-width="8"/><path d="M-3 39 Q-46 44-43 12 Q-12 9-3 39 M0 25 Q42 31 43 2 Q13 0 0 25" fill="url(#sage)" /><g transform="translate(0 -24)"><g transform="rotate(0)"><ellipse cx="0" cy="-26" rx="22" ry="30" fill="url(#rose)" /></g><g transform="rotate(72)"><ellipse cx="0" cy="-26" rx="22" ry="30" fill="url(#rose)" /></g><g transform="rotate(144)"><ellipse cx="0" cy="-26" rx="22" ry="30" fill="url(#rose)" /></g><g transform="rotate(216)"><ellipse cx="0" cy="-26" rx="22" ry="30" fill="url(#rose)" /></g><g transform="rotate(288)"><ellipse cx="0" cy="-26" rx="22" ry="30" fill="url(#rose)" /></g><circle r="23" fill="url(#gold)"/><ellipse cx="-7" cy="-7" rx="6" ry="4" fill="#fff1cc" stroke="none"/></g></g>
<g transform="translate(240 347) rotate(6)"><ellipse cx="-76" cy="6" rx="17" ry="24" fill="url(#skin)" /><ellipse cx="76" cy="6" rx="17" ry="24" fill="url(#skin)" /></g>
</g>

</svg>
