<svg xmlns="http://www.w3.org/2000/svg" width="2000" height="2000" viewBox="0 0 1000 1000">
<defs><linearGradient id="sky" x2=".8" y2="1"><stop stop-color="#D2E9F0"/><stop offset="1" stop-color="#F2F3E8"/></linearGradient><linearGradient id="sea" x2=".8" y2="1"><stop stop-color="#92C6D5"/><stop offset="1" stop-color="#BEDDDC"/></linearGradient><linearGradient id="wood" x2=".8" y2="1"><stop stop-color="#EDCBA0"/><stop offset="1" stop-color="#BD9369"/></linearGradient><linearGradient id="roof" x2=".8" y2="1"><stop stop-color="#F1B59E"/><stop offset="1" stop-color="#CF8C7B"/></linearGradient><linearGradient id="cream" x2=".8" y2="1"><stop stop-color="#FFFAE9"/><stop offset="1" stop-color="#E7DCC3"/></linearGradient><linearGradient id="gold" x2=".8" y2="1"><stop stop-color="#F9E3AA"/><stop offset="1" stop-color="#DDB878"/></linearGradient><linearGradient id="blue" x2=".8" y2="1"><stop stop-color="#C4DEEA"/><stop offset="1" stop-color="#8FB4CA"/></linearGradient><linearGradient id="pink" x2=".8" y2="1"><stop stop-color="#F2C6C2"/><stop offset="1" stop-color="#D999A0"/></linearGradient><linearGradient id="sand" x2=".8" y2="1"><stop stop-color="#F5E2B7"/><stop offset="1" stop-color="#D9B987"/></linearGradient><linearGradient id="shell" x2=".8" y2="1"><stop stop-color="#FFF1E6"/><stop offset="1" stop-color="#E7BFB3"/></linearGradient><radialGradient id="shadow"><stop stop-color="#7A5B48" stop-opacity=".22"/><stop offset="1" stop-color="#7A5B48" stop-opacity="0"/></radialGradient><radialGradient id="sun"><stop stop-color="#FFF0BF"/><stop offset="1" stop-color="#F7DFAB"/></radialGradient><mask id="face-clear" maskUnits="userSpaceOnUse" x="0" y="0" width="1000" height="1000"><rect x="0" y="0" width="1000" height="1000" rx="0" fill="white" stroke="none" stroke-width="2.6"/><ellipse cx="110" cy="510" rx="63" ry="59" fill="black" stroke="none" stroke-width="2.6" /><ellipse cx="260" cy="510" rx="63" ry="59" fill="black" stroke="none" stroke-width="2.6" /><ellipse cx="690" cy="510" rx="63" ry="59" fill="black" stroke="none" stroke-width="2.6" /><ellipse cx="880" cy="510" rx="63" ry="59" fill="black" stroke="none" stroke-width="2.6" /><ellipse cx="490" cy="742" rx="63" ry="59" fill="black" stroke="none" stroke-width="2.6" /><ellipse cx="660" cy="806" rx="63" ry="59" fill="black" stroke="none" stroke-width="2.6" /><ellipse cx="830" cy="742" rx="63" ry="59" fill="black" stroke="none" stroke-width="2.6" /><ellipse cx="150" cy="758" rx="63" ry="59" fill="black" stroke="none" stroke-width="2.6" /><ellipse cx="320" cy="825.1" rx="60" ry="56.2" fill="black" stroke="none" stroke-width="2.6" /></mask><mask id="open-background" maskUnits="userSpaceOnUse" x="0" y="0" width="1000" height="1000"><rect x="0" y="0" width="1000" height="1000" rx="0" fill="white" stroke="none" stroke-width="2.6"/><rect x="0" y="470" width="1000" height="530" rx="0" fill="black" stroke="none" stroke-width="2.6"/><rect x="30" y="250" width="300" height="404" rx="0" fill="black" stroke="none" stroke-width="2.6"/><rect x="600" y="440" width="380" height="214" rx="6" fill="black" stroke="none" stroke-width="2.6"/></mask></defs>
<g mask="url(#face-clear)"><g transform="translate(110 594)"><ellipse cx="0" cy="79" rx="68" ry="8" fill="url(#shadow)" stroke="none" stroke-width="2.6" /><path d="M-53 0 Q0 -48 53 0" fill="none" stroke="#4A3A40" stroke-width="5" stroke-linecap="round" stroke-linejoin="round" /><path d="M-52 -1 Q0 -44 52 -1" fill="none" stroke="#F8E8CD" stroke-width="2" stroke-linecap="round" stroke-linejoin="round" /><path d="M-59 0 H59 L47 78 H-47 Z" fill="url(#gold)" stroke="#4A3A40" stroke-width="2.6" stroke-linecap="round" stroke-linejoin="round" /><path d="M-47 78 H47 L56 17" fill="none" stroke="#4A3A40" stroke-width="3.4" stroke-linecap="round" stroke-linejoin="round" /><ellipse cx="0" cy="0" rx="59" ry="9" fill="url(#gold)" stroke="#4A3A40" stroke-width="2.5" /><ellipse cx="-3" cy="-1" rx="48" ry="4" fill="#E1BF87" stroke="none" stroke-width="0" /><path d="M-46 14 L-38 65" fill="none" stroke="#FFF5DC" stroke-width="2.5" stroke-linecap="round" stroke-linejoin="round" /><path d="M22 10 L43 -15" fill="none" stroke="#4A3A40" stroke-width="6" stroke-linecap="round" stroke-linejoin="round" /><path d="M22 10 L43 -15" fill="none" stroke="#D5938B" stroke-width="3.5" stroke-linecap="round" stroke-linejoin="round" /><ellipse cx="45" cy="-16" rx="8" ry="10" fill="url(#pink)" stroke="#4A3A40" stroke-width="2" transform="rotate(30 45 -16)"/><path d="M42 -19 l3 -3" fill="none" stroke="#FFE3D5" stroke-width="1.4" stroke-linecap="round" stroke-linejoin="round" /><path d="M-29 65 Q0 69 29 65" fill="none" stroke="#A38462" stroke-width="1" stroke-linecap="round" stroke-linejoin="round" opacity=".35"/></g><g transform="translate(258 616)"><ellipse cx="0" cy="39" rx="81" ry="9" fill="url(#shadow)" stroke="none" stroke-width="2.6" /><ellipse cx="0" cy="0" rx="74" ry="40" fill="url(#cream)" stroke="#4A3A40" stroke-width="2.6" /><path d="M-70 -13 Q-61 -28 -41 -34 L-24 -16 Q-36 -12 -39 -5 Z" fill="url(#pink)" stroke="none" stroke-width="0" stroke-linecap="round" stroke-linejoin="round" /><path d="M22 -38 Q49 -34 64 -20 L35 -8 Q30 -14 13 -18 Z" fill="url(#pink)" stroke="none" stroke-width="0" stroke-linecap="round" stroke-linejoin="round" /><path d="M67 17 Q53 32 27 37 L16 18 Q29 15 37 8 Z" fill="url(#pink)" stroke="none" stroke-width="0" stroke-linecap="round" stroke-linejoin="round" /><path d="M-26 37 Q-54 31 -66 19 L-36 8 Q-28 15 -15 18 Z" fill="url(#pink)" stroke="none" stroke-width="0" stroke-linecap="round" stroke-linejoin="round" /><ellipse cx="0" cy="0" rx="40.7" ry="20" fill="url(#blue)" stroke="#4A3A40" stroke-width="2.3" /><path d="M-71 9 Q-61 37 0 40 Q61 37 71 9" fill="none" stroke="#4A3A40" stroke-width="3.4" stroke-linecap="round" stroke-linejoin="round" /><path d="M-58 -18 Q-39 -32 -18 -32" fill="none" stroke="#FFF9ED" stroke-width="2.8" stroke-linecap="round" stroke-linejoin="round" /><path d="M-32 4 Q0 21 33 4" fill="none" stroke="#E0EDF0" stroke-width="1.8" stroke-linecap="round" stroke-linejoin="round" /></g><ellipse cx="690" cy="676" rx="76" ry="9" fill="url(#shadow)" stroke="none" stroke-width="2.6" /><path d="M660 608 V590 Q660 584 666 584 H714 Q720 584 720 590 V608" fill="url(#blue)" stroke="#4A3A40" stroke-width="3.5" stroke-linecap="round" stroke-linejoin="round" /><rect x="624" y="606" width="132" height="70" rx="10" fill="url(#blue)" stroke="#4A3A40" stroke-width="2.6"/><rect x="620" y="604" width="140" height="22" rx="8" fill="url(#cream)" stroke="#4A3A40" stroke-width="2.6"/><path d="M629 611 H749" fill="none" stroke="#FFFDF6" stroke-width="2.3" stroke-linecap="round" stroke-linejoin="round" /><path d="M628 664 Q628 673 639 673 H742 Q752 673 754 664" fill="none" stroke="#4A3A40" stroke-width="3.2" stroke-linecap="round" stroke-linejoin="round" /><path d="M633 634 V657" fill="none" stroke="#EAF3F2" stroke-width="2.2" stroke-linecap="round" stroke-linejoin="round" /><rect x="683" y="619" width="14" height="19" rx="3" fill="url(#wood)" stroke="#4A3A40" stroke-width="1.5"/><path d="M687 625 h6" fill="none" stroke="#FFF0D5" stroke-width="1.4" stroke-linecap="round" stroke-linejoin="round" /><g transform="translate(880 600)"><ellipse cx="0" cy="78" rx="76" ry="9" fill="url(#shadow)" stroke="none" stroke-width="2.6" /><rect x="-55" y="0" width="34" height="28" rx="3" fill="url(#sand)" stroke="#4A3A40" stroke-width="2.4"/><path d="M-51 4 h26" fill="none" stroke="#FFF1CE" stroke-width="1.8" stroke-linecap="round" stroke-linejoin="round" /><path d="M-26 10 v14" fill="none" stroke="#B69369" stroke-width="1" stroke-linecap="round" stroke-linejoin="round" opacity=".5"/><rect x="-20" y="-14" width="40" height="42" rx="3" fill="url(#sand)" stroke="#4A3A40" stroke-width="2.4"/><path d="M-16 -10 h32" fill="none" stroke="#FFF1CE" stroke-width="1.8" stroke-linecap="round" stroke-linejoin="round" /><path d="M15 -4 v28" fill="none" stroke="#B69369" stroke-width="1" stroke-linecap="round" stroke-linejoin="round" opacity=".5"/><rect x="21" y="0" width="34" height="28" rx="3" fill="url(#sand)" stroke="#4A3A40" stroke-width="2.4"/><path d="M25 4 h26" fill="none" stroke="#FFF1CE" stroke-width="1.8" stroke-linecap="round" stroke-linejoin="round" /><path d="M50 10 v14" fill="none" stroke="#B69369" stroke-width="1" stroke-linecap="round" stroke-linejoin="round" opacity=".5"/><path d="M-66 78 L-56 26 H56 L66 78 Z" fill="url(#sand)" stroke="#4A3A40" stroke-width="2.6" stroke-linecap="round" stroke-linejoin="round" /><path d="M-63 78 H64" fill="none" stroke="#4A3A40" stroke-width="3.4" stroke-linecap="round" stroke-linejoin="round" /><path d="M-51 31 H50" fill="none" stroke="#FFF1D0" stroke-width="2" stroke-linecap="round" stroke-linejoin="round" /><path d="M-12 78 V60 Q-12 47 0 47 Q12 47 12 60 V78" fill="url(#wood)" stroke="#B9976C" stroke-width="1.5" stroke-linecap="round" stroke-linejoin="round" /><path d="M-40 48 h14 M25 52 h18 M-46 65 h10 M32 68 h13" fill="none" stroke="#BDA077" stroke-width="1" stroke-linecap="round" stroke-linejoin="round" opacity=".5"/><ellipse cx="-48" cy="38" rx="0.8" ry="0.6" fill="#A88A61" stroke="none" stroke-width="0" /><ellipse cx="-29" cy="56" rx="0.8" ry="0.6" fill="#A88A61" stroke="none" stroke-width="0" /><ellipse cx="40" cy="42" rx="0.8" ry="0.6" fill="#A88A61" stroke="none" stroke-width="0" /><ellipse cx="49" cy="61" rx="0.8" ry="0.6" fill="#A88A61" stroke="none" stroke-width="0" /><ellipse cx="-20" cy="70" rx="0.8" ry="0.6" fill="#A88A61" stroke="none" stroke-width="0" /><ellipse cx="23" cy="36" rx="0.8" ry="0.6" fill="#A88A61" stroke="none" stroke-width="0" /></g><g transform="translate(150 848)"><ellipse cx="0" cy="78" rx="76" ry="9" fill="url(#shadow)" stroke="none" stroke-width="2.6" /><rect x="-55" y="0" width="34" height="28" rx="3" fill="url(#sand)" stroke="#4A3A40" stroke-width="2.4"/><path d="M-51 4 h26" fill="none" stroke="#FFF1CE" stroke-width="1.8" stroke-linecap="round" stroke-linejoin="round" /><path d="M-26 10 v14" fill="none" stroke="#B69369" stroke-width="1" stroke-linecap="round" stroke-linejoin="round" opacity=".5"/><rect x="-20" y="-14" width="40" height="42" rx="3" fill="url(#sand)" stroke="#4A3A40" stroke-width="2.4"/><path d="M-16 -10 h32" fill="none" stroke="#FFF1CE" stroke-width="1.8" stroke-linecap="round" stroke-linejoin="round" /><path d="M15 -4 v28" fill="none" stroke="#B69369" stroke-width="1" stroke-linecap="round" stroke-linejoin="round" opacity=".5"/><rect x="21" y="0" width="34" height="28" rx="3" fill="url(#sand)" stroke="#4A3A40" stroke-width="2.4"/><path d="M25 4 h26" fill="none" stroke="#FFF1CE" stroke-width="1.8" stroke-linecap="round" stroke-linejoin="round" /><path d="M50 10 v14" fill="none" stroke="#B69369" stroke-width="1" stroke-linecap="round" stroke-linejoin="round" opacity=".5"/><path d="M-66 78 L-56 26 H56 L66 78 Z" fill="url(#sand)" stroke="#4A3A40" stroke-width="2.6" stroke-linecap="round" stroke-linejoin="round" /><path d="M-63 78 H64" fill="none" stroke="#4A3A40" stroke-width="3.4" stroke-linecap="round" stroke-linejoin="round" /><path d="M-51 31 H50" fill="none" stroke="#FFF1D0" stroke-width="2" stroke-linecap="round" stroke-linejoin="round" /><path d="M-12 78 V60 Q-12 47 0 47 Q12 47 12 60 V78" fill="url(#wood)" stroke="#B9976C" stroke-width="1.5" stroke-linecap="round" stroke-linejoin="round" /><path d="M-40 48 h14 M25 52 h18 M-46 65 h10 M32 68 h13" fill="none" stroke="#BDA077" stroke-width="1" stroke-linecap="round" stroke-linejoin="round" opacity=".5"/><ellipse cx="-48" cy="38" rx="0.8" ry="0.6" fill="#A88A61" stroke="none" stroke-width="0" /><ellipse cx="-29" cy="56" rx="0.8" ry="0.6" fill="#A88A61" stroke="none" stroke-width="0" /><ellipse cx="40" cy="42" rx="0.8" ry="0.6" fill="#A88A61" stroke="none" stroke-width="0" /><ellipse cx="49" cy="61" rx="0.8" ry="0.6" fill="#A88A61" stroke="none" stroke-width="0" /><ellipse cx="-20" cy="70" rx="0.8" ry="0.6" fill="#A88A61" stroke="none" stroke-width="0" /><ellipse cx="23" cy="36" rx="0.8" ry="0.6" fill="#A88A61" stroke="none" stroke-width="0" /></g><g transform="translate(320 914)"><ellipse cx="0" cy="79" rx="68" ry="8" fill="url(#shadow)" stroke="none" stroke-width="2.6" /><path d="M-53 0 Q0 -48 53 0" fill="none" stroke="#4A3A40" stroke-width="5" stroke-linecap="round" stroke-linejoin="round" /><path d="M-52 -1 Q0 -44 52 -1" fill="none" stroke="#F8E8CD" stroke-width="2" stroke-linecap="round" stroke-linejoin="round" /><path d="M-59 0 H59 L47 78 H-47 Z" fill="url(#blue)" stroke="#4A3A40" stroke-width="2.6" stroke-linecap="round" stroke-linejoin="round" /><path d="M-47 78 H47 L56 17" fill="none" stroke="#4A3A40" stroke-width="3.4" stroke-linecap="round" stroke-linejoin="round" /><ellipse cx="0" cy="0" rx="59" ry="9" fill="url(#gold)" stroke="#4A3A40" stroke-width="2.5" /><ellipse cx="-3" cy="-1" rx="48" ry="4" fill="#E1BF87" stroke="none" stroke-width="0" /><path d="M-46 14 L-38 65" fill="none" stroke="#FFF5DC" stroke-width="2.5" stroke-linecap="round" stroke-linejoin="round" /><path d="M22 10 L43 -15" fill="none" stroke="#4A3A40" stroke-width="6" stroke-linecap="round" stroke-linejoin="round" /><path d="M22 10 L43 -15" fill="none" stroke="#D5938B" stroke-width="3.5" stroke-linecap="round" stroke-linejoin="round" /><ellipse cx="45" cy="-16" rx="8" ry="10" fill="url(#pink)" stroke="#4A3A40" stroke-width="2" transform="rotate(30 45 -16)"/><path d="M42 -19 l3 -3" fill="none" stroke="#FFE3D5" stroke-width="1.4" stroke-linecap="round" stroke-linejoin="round" /><path d="M-29 65 Q0 69 29 65" fill="none" stroke="#A38462" stroke-width="1" stroke-linecap="round" stroke-linejoin="round" opacity=".35"/></g><g transform="translate(830 852)"><ellipse cx="0" cy="39" rx="81" ry="9" fill="url(#shadow)" stroke="none" stroke-width="2.6" /><ellipse cx="0" cy="0" rx="74" ry="40" fill="url(#cream)" stroke="#4A3A40" stroke-width="2.6" /><path d="M-70 -13 Q-61 -28 -41 -34 L-24 -16 Q-36 -12 -39 -5 Z" fill="url(#pink)" stroke="none" stroke-width="0" stroke-linecap="round" stroke-linejoin="round" /><path d="M22 -38 Q49 -34 64 -20 L35 -8 Q30 -14 13 -18 Z" fill="url(#pink)" stroke="none" stroke-width="0" stroke-linecap="round" stroke-linejoin="round" /><path d="M67 17 Q53 32 27 37 L16 18 Q29 15 37 8 Z" fill="url(#pink)" stroke="none" stroke-width="0" stroke-linecap="round" stroke-linejoin="round" /><path d="M-26 37 Q-54 31 -66 19 L-36 8 Q-28 15 -15 18 Z" fill="url(#pink)" stroke="none" stroke-width="0" stroke-linecap="round" stroke-linejoin="round" /><ellipse cx="0" cy="0" rx="40.7" ry="20" fill="url(#blue)" stroke="#4A3A40" stroke-width="2.3" /><path d="M-71 9 Q-61 37 0 40 Q61 37 71 9" fill="none" stroke="#4A3A40" stroke-width="3.4" stroke-linecap="round" stroke-linejoin="round" /><path d="M-58 -18 Q-39 -32 -18 -32" fill="none" stroke="#FFF9ED" stroke-width="2.8" stroke-linecap="round" stroke-linejoin="round" /><path d="M-32 4 Q0 21 33 4" fill="none" stroke="#E0EDF0" stroke-width="1.8" stroke-linecap="round" stroke-linejoin="round" /></g><ellipse cx="490" cy="922" rx="60" ry="8" fill="url(#shadow)" stroke="none" stroke-width="2.6" /><ellipse cx="490" cy="870" rx="52" ry="52" fill="url(#cream)" stroke="#4A3A40" stroke-width="2.6" /><path d="M490 818 C441 839 441 901 490 922 C466 894 466 846 490 818" fill="url(#pink)" stroke="none" stroke-width="0" stroke-linecap="round" stroke-linejoin="round" /><path d="M490 818 C536 840 536 900 490 922 C512 892 512 847 490 818" fill="url(#blue)" stroke="none" stroke-width="0" stroke-linecap="round" stroke-linejoin="round" /><path d="M441 887 Q452 922 490 922 Q528 922 539 887" fill="none" stroke="#4A3A40" stroke-width="3.3" stroke-linecap="round" stroke-linejoin="round" /><path d="M455 842 Q464 830 477 827" fill="none" stroke="#FFF9EF" stroke-width="3" stroke-linecap="round" stroke-linejoin="round" /><ellipse cx="490" cy="819" rx="6" ry="2" fill="#F0D7AC" stroke="none" stroke-width="0" /><ellipse cx="620" cy="958" rx="45" ry="6" fill="url(#shadow)" stroke="none" stroke-width="2.6" /><ellipse cx="620" cy="932" rx="40" ry="26" fill="url(#shell)" stroke="#4A3A40" stroke-width="2.5" /><path d="M616.1 951 Q603.1 932 594 914.32" fill="none" stroke="#B58C80" stroke-width="1.3" stroke-linecap="round" stroke-linejoin="round" opacity=".58"/><path d="M618.08 951 Q611.68 932 607.2 914.32" fill="none" stroke="#B58C80" stroke-width="1.3" stroke-linecap="round" stroke-linejoin="round" opacity=".58"/><path d="M620 951 Q620 932 620 914.32" fill="none" stroke="#B58C80" stroke-width="1.3" stroke-linecap="round" stroke-linejoin="round" opacity=".58"/><path d="M621.92 951 Q628.32 932 632.8 914.32" fill="none" stroke="#B58C80" stroke-width="1.3" stroke-linecap="round" stroke-linejoin="round" opacity=".58"/><path d="M623.9 951 Q636.9 932 646 914.32" fill="none" stroke="#B58C80" stroke-width="1.3" stroke-linecap="round" stroke-linejoin="round" opacity=".58"/><path d="M593.2 922.9 Q608 908.6 626.8 911.98" fill="none" stroke="#FFF9EA" stroke-width="2" stroke-linecap="round" stroke-linejoin="round" /><ellipse cx="698" cy="958" rx="43" ry="6" fill="url(#shadow)" stroke="none" stroke-width="2.6" /><ellipse cx="698" cy="934" rx="38" ry="24" fill="url(#gold)" stroke="#4A3A40" stroke-width="2.5" /><path d="M694.295 951 Q681.945 934 673.3 917.68" fill="none" stroke="#B58C80" stroke-width="1.3" stroke-linecap="round" stroke-linejoin="round" opacity=".58"/><path d="M696.176 951 Q690.096 934 685.84 917.68" fill="none" stroke="#B58C80" stroke-width="1.3" stroke-linecap="round" stroke-linejoin="round" opacity=".58"/><path d="M698 951 Q698 934 698 917.68" fill="none" stroke="#B58C80" stroke-width="1.3" stroke-linecap="round" stroke-linejoin="round" opacity=".58"/><path d="M699.824 951 Q705.904 934 710.16 917.68" fill="none" stroke="#B58C80" stroke-width="1.3" stroke-linecap="round" stroke-linejoin="round" opacity=".58"/><path d="M701.705 951 Q714.055 934 722.7 917.68" fill="none" stroke="#B58C80" stroke-width="1.3" stroke-linecap="round" stroke-linejoin="round" opacity=".58"/><path d="M672.54 925.6 Q686.6 912.4 704.46 915.52" fill="none" stroke="#FFF9EA" stroke-width="2" stroke-linecap="round" stroke-linejoin="round" /><ellipse cx="660" cy="948" rx="51" ry="6" fill="url(#shadow)" stroke="none" stroke-width="2.6" /><ellipse cx="660" cy="918" rx="46" ry="30" fill="url(#shell)" stroke="#4A3A40" stroke-width="2.5" /><path d="M655.515 941 Q640.565 918 630.1 897.6" fill="none" stroke="#B58C80" stroke-width="1.3" stroke-linecap="round" stroke-linejoin="round" opacity=".58"/><path d="M657.792 941 Q650.432 918 645.28 897.6" fill="none" stroke="#B58C80" stroke-width="1.3" stroke-linecap="round" stroke-linejoin="round" opacity=".58"/><path d="M660 941 Q660 918 660 897.6" fill="none" stroke="#B58C80" stroke-width="1.3" stroke-linecap="round" stroke-linejoin="round" opacity=".58"/><path d="M662.208 941 Q669.568 918 674.72 897.6" fill="none" stroke="#B58C80" stroke-width="1.3" stroke-linecap="round" stroke-linejoin="round" opacity=".58"/><path d="M664.485 941 Q679.435 918 689.9 897.6" fill="none" stroke="#B58C80" stroke-width="1.3" stroke-linecap="round" stroke-linejoin="round" opacity=".58"/><path d="M629.18 907.5 Q646.2 891 667.82 894.9" fill="none" stroke="#FFF9EA" stroke-width="2" stroke-linecap="round" stroke-linejoin="round" /></g>
</svg>
