<svg xmlns="http://www.w3.org/2000/svg" width="450" height="600" viewBox="-90 -225 180 240">
<defs>
<radialGradient id="skin" cx=".28" cy=".22" r=".82"><stop stop-color="#efe5f5"/><stop offset=".48" stop-color="#d8c7e8"/><stop offset=".82" stop-color="#c4b0d6"/><stop offset="1" stop-color="#ad95c0"/></radialGradient>
<radialGradient id="cheek"><stop stop-color="#d77e76" stop-opacity=".47"/><stop offset=".6" stop-color="#e49481" stop-opacity=".25"/><stop offset="1" stop-color="#e49481" stop-opacity="0"/></radialGradient>
<radialGradient id="muzzle"><stop stop-color="#faf0f7" stop-opacity=".62"/><stop offset="1" stop-color="#faf0f7" stop-opacity="0"/></radialGradient>
<linearGradient id="eye" x1="0" y1="0" x2=".3" y2="1"><stop stop-color="#49373b"/><stop offset="1" stop-color="#715046"/></linearGradient>

<linearGradient id="ear" x1="0" y1="0" x2=".7" y2="1"><stop stop-color="#cce4ca"/><stop offset=".55" stop-color="#a7cdb2"/><stop offset="1" stop-color="#85ac96"/></linearGradient>
<radialGradient id="pink" cx=".3" cy=".25" r=".8"><stop stop-color="#f5d8d6"/><stop offset="1" stop-color="#dcaeaf"/></radialGradient>
<linearGradient id="star" x1="0" y1="0" x2=".7" y2="1"><stop stop-color="#f9e6ac"/><stop offset=".55" stop-color="#edcc7d"/><stop offset="1" stop-color="#cba360"/></linearGradient></defs><path d="M-50-125 C-63-135-59-158-45-166 Q-37-172-27-170 C-23-184-10-192 3-190 C16-190 25-182 28-171 C42-176 56-163 57-148 C59-137 54-129 48-124 C53-111 44-98 32-96 Q21-91 10-98 Q0-94-11-98 C-24-90-41-98-46-109 Q-50-117-50-125Z" fill="url(#skin)" stroke="#4A3A40" stroke-width="2.6" stroke-linejoin="round"/>
<path d="M57-148 C59-137 54-129 48-124 C53-111 44-98 32-96 Q21-91 10-98 Q0-94-11-98 C-24-90-41-98-46-109" fill="none" stroke="#4A3A40" stroke-width="3.4" stroke-linecap="round" stroke-linejoin="round"/>
<path d="M-54-145 Q-53-164-38-165 M-22-173 Q-16-185-4-185" fill="none" stroke="#faf0fc" stroke-opacity=".7" stroke-width="1.3" stroke-linecap="round"/>
<path d="M43-121 Q47-106 32-102 M-33-104 Q-23-97-15-103" fill="none" stroke="#9c87ad" stroke-opacity=".45" stroke-width="1.15" stroke-linecap="round"/>
<path d="M26-174 Q35-166 43-174" fill="none" stroke="#948099" stroke-opacity=".25" stroke-width="4" stroke-linecap="round"/>
<path d="M36-195 Q37-195 40-187 L47-187 Q49-187 47-185 L42-180 L44-173 Q45-171 43-172 L36-177 L29-173 Q27-172 28-175 L30-181 L24-185 Q23-187 25-187 L32-187 L35-194 Q35-195 36-195Z" fill="url(#star)" stroke="#4A3A40" stroke-width="2.6" stroke-linejoin="round"/>
<path d="M35-190 L34-184 L28-184 M38-179 L41-175" fill="none" stroke="#fff3c9" stroke-width="1.1" stroke-linecap="round"/>
<ellipse cx="-30" cy="-126" rx="12" ry="8" fill="url(#cheek)"/>
<ellipse cx="31" cy="-126" rx="12" ry="8" fill="url(#cheek)"/>
<ellipse cx="0" cy="-124" rx="18" ry="13" fill="url(#muzzle)"/>
<path d="M-22-153 Q-17-157-12-157 M12-157 Q17-157 22-153" fill="none" stroke="#96809f" stroke-width="1.1" stroke-linecap="round" opacity=".7"/>
<ellipse cx="-16" cy="-142" rx="6.1" ry="7.7" fill="url(#eye)"/>
<ellipse cx="16" cy="-142" rx="6.1" ry="7.7" fill="url(#eye)"/>
<ellipse cx="-17.8" cy="-145.1" rx="2.05" ry="2.45" fill="#fff9e9"/>
<ellipse cx="14.2" cy="-145.1" rx="2.05" ry="2.45" fill="#fff9e9"/>
<circle cx="-13.8" cy="-138.2" r=".85" fill="#cab0cf" opacity=".75"/>
<circle cx="18.2" cy="-138.2" r=".85" fill="#cab0cf" opacity=".75"/>
<path d="M-5-126 Q0-120 5-126" fill="none" stroke="#604339" stroke-width="1.9" stroke-linecap="round"/>
<path d="M-2-116.5 Q1-115.5 4-117" fill="none" stroke="#ab8faa" stroke-width=".7" stroke-linecap="round" opacity=".5"/>
<g fill="#a18ba6" opacity=".36"><circle cx="-33" cy="-125" r=".65"/><circle cx="-29" cy="-123.5" r=".7"/><circle cx="29" cy="-123.5" r=".7"/><circle cx="33" cy="-125" r=".65"/></g><path d="M-43-54 C-49-60-59-56-60-48 C-63-40-55-34-48-36 C-43-37-40-40-41-44 C-36-42-34-46-37-49 Q-40-53-43-54Z" fill="url(#skin)" stroke="#4A3A40" stroke-width="2.6" stroke-linecap="round" stroke-linejoin="round"/>
<path d="M-55-50 Q-57-45-54-42" fill="none" stroke="#f4eafa" stroke-width="1.15" stroke-linecap="round" opacity=".8"/><path d="M43-63 C48-69 51-77 51-82 C47-85 46-90 49-92 C52-94 54-89 56-87 C55-93 57-99 63-99 C71-100 76-95 76-89 C77-83 73-79 69-76 Q61-70 57-58 C52-55 46-57 43-63Z" fill="url(#skin)" stroke="#4A3A40" stroke-width="2.6" stroke-linejoin="round"/>
<path d="M56-86 Q61-86 62-81 M58-77 Q62-75 65-78" fill="none" stroke="#9a81a5" stroke-width=".9" stroke-linecap="round"/>
<path d="M53-67 Q58-72 58-75" fill="none" stroke="#efe5f5" stroke-width="1.5" stroke-linecap="round" opacity=".7"/>
<path d="M-60-48 C-63-40-55-34-48-36 C-43-37-40-40-41-44" fill="none" stroke="#4A3A40" stroke-width="3.4" stroke-linecap="round" stroke-linejoin="round"/>
<path d="M76-89 C77-83 73-79 69-76 Q61-70 57-58 C52-55 46-57 43-63" fill="none" stroke="#4A3A40" stroke-width="3.4" stroke-linecap="round" stroke-linejoin="round"/>
</svg>
